<svg
  width="32"
  height="32"
  viewBox="0 0 100 100"
  fill="none"
  xmlns="http://www.w3.org/2000/svg"
>
  <defs>
    <linearGradient
      id="heart-gradient"
      x1="0%"
      y1="0%"
      x2="100%"
      y2="100%"
    >
      <stop offset="0%" stop-color="#ff6eb4" />
      <stop offset="50%" stop-color="#f754b3" />
      <stop offset="100%" stop-color="#e83fa5" />
    </linearGradient>
  </defs>

  <path
    d="M50 82C50 82 12 58 12 35C12 22 22 14 34 14C42 14 48 20 50 25C52 20 58 14 66 14C78 14 88 22 88 35C88 58 50 82 50 82Z"
    fill="url(#heart-gradient)"
  />

  <rect x="46" y="32" width="8" height="28" rx="2" fill="white" />
  <rect x="36" y="42" width="28" height="8" rx="2" fill="white" />

  <circle cx="30" cy="24" r="3" fill="white" opacity="0.7" />
  <circle cx="70" cy="24" r="3" fill="white" opacity="0.7" />
  <circle cx="18" cy="42" r="2.5" fill="white" opacity="0.7" />
  <circle cx="82" cy="42" r="2.5" fill="white" opacity="0.7" />

  <g opacity="0.2" stroke="white" stroke-width="1.2">
    <line x1="30" y1="24" x2="44" y2="38" />
    <line x1="70" y1="24" x2="56" y2="38" />
    <line x1="18" y1="42" x2="36" y2="46" />
    <line x1="82" y1="42" x2="64" y2="46" />
  </g>
</svg>
