<svg
  width="32"
  height="32"
  viewBox="0 0 100 100"
  fill="none"
  xmlns="http://www.w3.org/2000/svg"
>
  <defs>
    <linearGradient
      id="logo-gradient"
      x1="0%"
      y1="0%"
      x2="100%"
      y2="100%"
    >
      <stop offset="0%" stop-color="#f774c0" />
      <stop offset="50%" stop-color="#e85fb8" />
      <stop offset="100%" stop-color="#d94aaf" />
    </linearGradient>
  </defs>

  <path
    d="M50 85C50 85 15 65 15 40C15 30 20 20 30 20C37 20 43 25 50 32C57 25 63 20 70 20C80 20 85 30 85 40C85 65 50 85 50 85Z"
    fill="url(#logo-gradient)"
  />

  <rect x="47" y="35" width="6" height="30" rx="1.5" fill="white" />
  <rect x="35" y="47" width="30" height="6" rx="1.5" fill="white" />

  <circle cx="35" cy="28" r="2.5" fill="#ffffff" />
  <circle cx="65" cy="28" r="2.5" fill="#ffffff" />
  <circle cx="25" cy="45" r="2.5" fill="#ffffff" />
  <circle cx="75" cy="45" r="2.5" fill="#ffffff" />
  <circle cx="40" cy="70" r="2.5" fill="#ffffff" />
  <circle cx="60" cy="70" r="2.5" fill="#ffffff" />

  <g opacity="0.25" stroke="white" stroke-width="1.5">
    <line x1="35" y1="28" x2="47" y2="40" />
    <line x1="65" y1="28" x2="53" y2="40" />
    <line x1="25" y1="45" x2="40" y2="50" />
    <line x1="75" y1="45" x2="60" y2="50" />
    <line x1="40" y1="70" x2="47" y2="60" />
    <line x1="60" y1="70" x2="53" y2="60" />
  </g>
</svg>
